<?xml version="1.0" encoding="utf-8"?>
<!-- Generator: Adobe Illustrator 25.0.0, SVG Export Plug-In . SVG Version: 6.00 Build 0)  -->
<svg version="1.1" id="Icon" xmlns="http://www.w3.org/2000/svg" xmlns:xlink="http://www.w3.org/1999/xlink" x="0px" y="0px"
	 viewBox="0 0 100 100" style="enable-background:new 0 0 100 100;" xml:space="preserve">
<style type="text/css">
	.st0{fill:none;stroke:#000000;stroke-width:6;stroke-miterlimit:10;}
	.st1{fill:none;stroke:#000000;stroke-width:6;stroke-linejoin:round;stroke-miterlimit:10;}
</style>
<g>
	<path class="st0" d="M78,69.6c0,0.5-0.5,0.8-1,0.6c-16-7.3-27.6-14.5-45-14.5c-17.8,0-26,0-26,0V21.9c0,0,8.2,0,26,0
		c17.4,0,29-7.2,45-14.5c0.4-0.2,1,0.1,1,0.6V69.6z"/>
	<path class="st1" d="M87.5,21.9c0,0,6.6,7.5,6.6,16.9s-6.6,16.9-6.6,16.9"/>
	<path class="st0" d="M16.3,55.7l11.3,37h16.5l-11.9-37"/>
</g>
</svg>
