<?xml version="1.0" encoding="utf-8"?>
<!-- Generator: Adobe Illustrator 25.0.0, SVG Export Plug-In . SVG Version: 6.00 Build 0)  -->
<svg version="1.1" id="Icon" xmlns="http://www.w3.org/2000/svg" xmlns:xlink="http://www.w3.org/1999/xlink" x="0px" y="0px"
	 viewBox="0 0 100 100" style="enable-background:new 0 0 100 100;" xml:space="preserve">
<style type="text/css">
	.st0{fill:none;stroke:#000000;stroke-width:10;stroke-miterlimit:10;}
</style>
<g>
	<path class="st0" d="M65.6,40.2V17.6c0-8.3-6.8-15.1-15.1-15.1h-1c-3.7,0-7.1,1.4-9.8,3.6"/>
	<path class="st0" d="M34.4,17c0,0.2,0,0.4,0,0.6V50c0,8.3,6.8,15,15.1,15h1c5.5,0,10.4-3,13-7.5"/>
	<path class="st0" d="M79.8,60.2c0.8-2.5,1.2-5.1,1.2-7.9v-0.1"/>
	<path class="st0" d="M18.9,52.2L18.9,52.2c0,15.6,13.9,28.2,31.1,28.2l0,0c9.2,0.1,17.5-3.6,23.2-9.3"/>
	<line class="st0" x1="50" y1="80.5" x2="50" y2="97.6"/>
	<line class="st0" x1="32.1" y1="97.5" x2="67.9" y2="97.5"/>
	<line class="st0" x1="23.1" y1="1.3" x2="80.4" y2="80.9"/>
</g>
</svg>
