<?xml version="1.0" encoding="utf-8"?>
<!-- Generator: Adobe Illustrator 25.0.0, SVG Export Plug-In . SVG Version: 6.00 Build 0)  -->
<svg version="1.1" id="Icon" xmlns="http://www.w3.org/2000/svg" xmlns:xlink="http://www.w3.org/1999/xlink" x="0px" y="0px"
	 viewBox="0 0 100 100" style="enable-background:new 0 0 100 100;" xml:space="preserve">
<style type="text/css">
	.st0{fill:none;stroke:#000000;stroke-width:6;stroke-miterlimit:10;}
	.st1{fill:none;stroke:#000000;stroke-width:6;stroke-linejoin:round;stroke-miterlimit:10;}
</style>
<g>
	<g>
		<path class="st0" d="M54.6,60c-6.9-2.6-14-4.3-22.5-4.3c-17.8,0-26,0-26,0V21.9c0,0,6.7,0,21.1,0"/>
		<path class="st0" d="M39.6,21.4c13.5-1.7,23.9-7.8,37.5-14c0.4-0.2,1,0.1,1,0.6v60.9"/>
		<path class="st1" d="M87.6,21.9c0,0,6.6,7.5,6.6,16.9s-6.6,16.9-6.6,16.9"/>
		<path class="st0" d="M16.4,55.7l11.3,37h16.5l-11.9-37"/>
	</g>
	<line class="st0" x1="15.6" y1="5.9" x2="72.9" y2="85.5"/>
</g>
</svg>
